<svg width="12" height="9" viewBox="0 0 12 9" fill="none" xmlns="http://www.w3.org/2000/svg">
<path d="M0 0.9C0 0.661305 0.0948212 0.432387 0.263604 0.263604C0.432387 0.094821 0.661305 0 0.9 0H11.1C11.3387 5.03012e-09 11.5676 0.094821 11.7364 0.263604C11.9052 0.432387 12 0.661305 12 0.9C12 1.13869 11.9052 1.36761 11.7364 1.5364C11.5676 1.70518 11.3387 1.8 11.1 1.8H0.9C0.661305 1.8 0.432387 1.70518 0.263604 1.5364C0.0948212 1.36761 0 1.13869 0 0.9ZM2.4 4.5C2.4 4.26131 2.49482 4.03239 2.6636 3.8636C2.83239 3.69482 3.06131 3.6 3.3 3.6H8.7C8.93869 3.6 9.16761 3.69482 9.3364 3.8636C9.50518 4.03239 9.6 4.26131 9.6 4.5C9.6 4.7387 9.50518 4.96761 9.3364 5.1364C9.16761 5.30518 8.93869 5.4 8.7 5.4H3.3C3.06131 5.4 2.83239 5.30518 2.6636 5.1364C2.49482 4.96761 2.4 4.7387 2.4 4.5ZM5.1 7.2C4.86131 7.2 4.63239 7.29482 4.4636 7.4636C4.29482 7.63239 4.2 7.86131 4.2 8.1C4.2 8.3387 4.29482 8.56761 4.4636 8.7364C4.63239 8.90518 4.86131 9 5.1 9H6.9C7.1387 9 7.36761 8.90518 7.5364 8.7364C7.70518 8.56761 7.8 8.3387 7.8 8.1C7.8 7.86131 7.70518 7.63239 7.5364 7.4636C7.36761 7.29482 7.1387 7.2 6.9 7.2H5.1Z" fill="white"/>
</svg>
